#tb 0: 1/25
0,          0,          0,        1,    36864, 0xdee3d4e3
0,          1,          1,        1,    36864, 0xaa1a67ca
0,          2,          2,        1,    36864, 0xe00e0dec
0,          3,          3,        1,    36864, 0x31f0b63f
0,          4,          4,        1,    36864, 0xd0cc34d9
0,          5,          5,        1,    36864, 0x3e76eba5
0,          6,          6,        1,    36864, 0x0e7dcc9c
0,          7,          7,        1,    36864, 0xd71bc457
0,          8,          8,        1,    36864, 0x11c81ebe
0,          9,          9,        1,    36864, 0x1d4ca6d7
0,         10,         10,        1,    36864, 0xb191d155
0,         11,         11,        1,    36864, 0x435a188c
0,         12,         12,        1,    36864, 0x99d7227c
0,         13,         13,        1,    36864, 0x700637fc
0,         14,         14,        1,    36864, 0x351f7dd3
0,         15,         15,        1,    36864, 0x1658c18b
0,         16,         16,        1,    36864, 0x60034b90
